<?xml version="1.0" encoding="utf-8"?>
<!-- Generator: Adobe Illustrator 26.0.2, SVG Export Plug-In . SVG Version: 6.00 Build 0)  -->
<svg version="1.1" id="Layer_1"
	xmlns="http://www.w3.org/2000/svg"
	xmlns:xlink="http://www.w3.org/1999/xlink" x="0px" y="0px" viewBox="0 0 400 400" style="enable-background:new 0 0 400 400;" xml:space="preserve">
	<style type="text/css">
	.st0{fill:#efefef;}
	</style>
	<g>
		<path class="st0" d="M200,100c0,9.21-7.45,16.66-16.66,16.66c-9.18,0-16.65-7.45-16.65-16.66c0-9.21,7.47-16.67,16.65-16.67
		C192.55,83.33,200,90.79,200,100z"/>
		<path class="st0" d="M383.34,66.67H280.48c-9.19,0-17.55-3.73-23.57-9.77L209.77,9.77C203.26,3.25,194.73,0,186.2,0H66.66
		C29.85,0,0,29.86,0,66.67V400h216.66V300c0-36.83,29.86-66.66,66.67-66.66h50c36.81,0,66.66-29.86,66.66-66.67V83.33
		C400,74.12,392.55,66.67,383.34,66.67L383.34,66.67z M33.34,366.66v-33.33h150v33.33H33.34z M366.67,166.66
		c0,18.38-14.96,33.34-33.33,33.34H166.69v33.34h42.26c-15.88,17.69-25.61,41.02-25.61,66.66h-150v-58.97
		c17.7,15.87,41.02,25.62,66.66,25.62v0.01c18.41,0,33.31-14.92,33.31-33.33V66.67H100v166.64c-36.75,0-66.66-29.89-66.66-66.66
		V66.67c0-18.4,14.94-33.34,33.33-33.34h119.54l47.11,47.11C245.9,93.04,262.64,100,280.48,100h86.2L366.67,166.66z"/>
	</g>
</svg>
